# xmcd
#
# Track frame offsets:
#	182
#	18892
#	57447
#	86965
#	109260
#	140345
#	167700
#
# Disc length: 2422 seconds
#
# Revision: 3
# Processed by: cddbd v1.5.2PL0 Copyright (c) Steve Scherf et al.
# Submitted via: EZCDAudioConverter 1.3.4.1
#
DISCID=5a097407
DTITLE=The B-52's - Revolution Earth
DYEAR=1900
DGENRE=
TTITLE0=Revolution Earth [Edit]
TTITLE1=Revolution Earth [Co2 Mix]
TTITLE2=Is That You Mo-Dean [Interdimension Mix]
TTITLE3=Revolution Earth [Vibe Tribe Version]
TTITLE4=Revolution Earth [PPM Dub]
TTITLE5=Is That You Mo-Dean [Roots Mix]
TTITLE6=Is That You Mo-Dean [Harpapella]
EXTD=
EXTT0=
EXTT1=
EXTT2=
EXTT3=
EXTT4=
EXTT5=
EXTT6=
PLAYORDER=
